<svg aria-hidden="true" style="position:absolute;width:0;height:0" xmlns="http://www.w3.org/2000/svg" overflow="hidden"><defs><symbol id="icon-globe" viewBox="0 0 28 32"><path fill="var(--color1, #10cab7)" d="M19.568 31.943h-11.2a.625.625 0 01-.622-.622v-.443c0-.342.281-.622.622-.622h4.756l.004-2.898A14.632 14.632 0 01.289 12.818C.293 7.641 2.945 2.951 7.39.272l.127-.075.018-.009.057-.031a.878.878 0 01.307-.061.85.85 0 01.85.85.839.839 0 01-.338.675l-.162.096a13.32 13.32 0 00-1.946 1.447l1.42 1.42a10.92 10.92 0 017.224-2.722c6.036.004 10.95 4.918 10.95 10.955 0 2.67-.96 5.225-2.718 7.224l1.42 1.42a13.116 13.116 0 001.438-1.938l.031-.057.044-.066a.849.849 0 01.684-.355.85.85 0 01.793 1.157l-.066.114-.053.092c-2.687 4.423-7.369 7.062-12.524 7.062h-.136v2.784h4.756c.342 0 .622.281.622.622v.443a.625.625 0 01-.622.622zM5.12 4.366a12.909 12.909 0 00-3.143 8.451c.013 7.141 5.83 12.958 12.971 12.971 3.108 0 6.098-1.113 8.451-3.147l-1.425-1.425a10.953 10.953 0 01-7.027 2.556c-6.041 0-10.955-4.914-10.955-10.955 0-2.569.903-5.059 2.551-7.027L5.118 4.365zm9.828-.815c-5.102.009-9.262 4.164-9.271 9.267.009 5.102 4.169 9.262 9.271 9.271 5.102-.009 9.258-4.169 9.267-9.271-.009-5.102-4.164-9.258-9.267-9.267z"/></symbol><symbol id="icon-flask" viewBox="0 0 27 32"><path fill="var(--color1, #10cab7)" d="M16.626 5.337a1.31 1.31 0 000-1.855 1.318 1.318 0 00-1.855 0c-.513.513-.513 1.342 0 1.855s1.342.513 1.855 0zm-3.898-1.088c.74-.736.74-1.927 0-2.663-.733-.736-1.927-.736-2.663 0s-.736 1.927 0 2.663c.736.736 1.93.736 2.663 0zm10.66 20.766l-5.519-9.476c-.327-.53-.657-1.758-.643-2.381V8.805h.585c.268 0 .492-.22.492-.492v-.489a.494.494 0 00-.492-.492h-8.85a.494.494 0 00-.492.492v.489c0 .272.224.492.492.492h.43v4.353c.014.623-.317 1.851-.643 2.381l-5.519 9.476a1.894 1.894 0 00-.279.939c-.007.403.189.829.516 1.084.323.258.723.358 1.132.358h17.421c.406 0 .805-.1 1.132-.358.327-.255.52-.681.513-1.084 0-.337-.107-.65-.275-.939z"/></symbol><symbol id="icon-table-lamp" viewBox="0 0 32 32"><path fill="var(--color1, #10cab7)" d="M29.719 29.737h-7.572l3.191-3.186c.383.086.775.135 1.185.135a5.45 5.45 0 005.444-5.444 5.45 5.45 0 00-5.444-5.444c-.744 0-1.451.153-2.096.419l-3.899-3.894 1.672-1.677a6.235 6.235 0 001.663-4.237v-.032c-.041-3.52-2.875-6.35-6.359-6.391h-.068a6.168 6.168 0 00-4.21 1.627L8.732 6.107l-6.837.802c-.338.045-.672.14-.983.383-.316.23-.554.681-.545 1.109.009.55.275.942.577 1.248L14.195 22.9c.306.302.703.568 1.253.577h.027c.424 0 .852-.239 1.082-.541.239-.311.334-.649.379-.983l-.992-.117.992.113.784-6.815 1.397-1.397 3.61 3.61a5.421 5.421 0 00-1.65 3.894c0 1.834.91 3.452 2.303 4.439l-4.061 4.056h-7.874a.668.668 0 00-.667.667v.667c0 .365.297.667.667.667h18.272a.668.668 0 00.663-.667v-.667a.667.667 0 00-.663-.667zM15.815 14.215l-.771 6.706L2.925 8.802l6.729-.793 4.958-4.953a4.168 4.168 0 012.826-1.073h.023c2.411.023 4.385 1.997 4.403 4.385v.041c0 1.109-.415 2.1-1.104 2.848l-4.944 4.958zm10.709 3.583a3.442 3.442 0 11.001 6.885 3.442 3.442 0 01-.001-6.885z"/></symbol><symbol id="icon-burger-menu" viewBox="0 0 58 32"><path fill="var(--color2, #24484f)" d="M0 0v2.133h57.6V0H0zm19.2 17.067h38.4v-2.133H19.2v2.133zM0 32h57.6v-2.133H0V32z"/></symbol></defs></svg>